Coordinates
nRows=201
nColumns=2
inDegrees=yes
endheader
time	ankle_angle_r	
6.55343	 -4.300383	
6.58669	 -4.240742	
6.61996	 -4.243048	
6.65323	 -4.288728	
6.68649	 -4.241943	
6.71976	 -4.241943	
6.75302	 -4.287720	
6.78629	 -4.257202	
6.81956	 -4.226685	
6.85282	 -4.272889	
6.88609	 -4.242274	
6.91935	 -4.241709	
6.95262	 -4.287582	
6.98589	 -4.257202	
7.01915	 -4.226685	
7.05242	 -4.317780	
7.08569	 -4.287221	
7.11895	 -4.227030	
7.15222	 -4.273346	
7.18548	 -4.257202	
7.21875	 -4.241943	
7.25202	 -4.288452	
7.28528	 -4.271632	
7.31855	 -4.226685	
7.35181	 -4.302979	
7.38508	 -4.272461	
7.41835	 -4.240727	
7.45161	 -4.287720	
7.48488	 -4.226685	
7.51815	 -4.240438	
7.55141	 -4.289322	
7.58468	 -4.243643	
7.61794	 -4.257202	
7.65121	 -4.302979	
7.68448	 -4.268482	
7.71774	 -4.296721	
7.75101	 -4.305161	
7.78427	 -4.270182	
7.81754	 -4.285344	
7.85081	 -4.302979	
7.88407	 -4.269891	
7.91734	 -4.315571	
7.9506	 -4.293245	
7.98387	 -4.266742	
8.01714	 -4.300022	
8.0504	 -4.315185	
8.08367	 -4.281421	
8.11694	 -4.327003	
8.1502	 -4.326810	
8.18347	 -4.272461	
8.21673	 -4.321774	
8.25	 -4.356748	
8.28327	 -4.276191	
8.31653	 -4.333496	
8.3498	 -4.337419	
8.38306	 -4.291739	
8.41633	 -4.351664	
8.4496	 -4.340329	
8.48286	 -4.309618	
8.51613	 -4.329090	
8.5494	 -4.348755	
8.58266	 -4.292320	
8.61593	 -4.339362	
8.64919	 -4.354427	
8.68246	 -4.318237	
8.71573	 -4.343768	
8.74899	 -4.338580	
8.78226	 -4.292900	
8.81552	 -4.323514	
8.84879	 -4.344243	
8.88206	 -4.308449	
8.91532	 -4.329371	
8.94859	 -4.339159	
8.98185	 -4.308739	
9.01512	 -4.348755	
9.04839	 -4.339449	
9.08165	 -4.309029	
9.11492	 -4.339643	
9.14819	 -4.348755	
9.18145	 -4.309319	
9.21472	 -4.320622	
9.24798	 -4.333496	
9.28125	 -4.287720	
9.31452	 -4.340223	
9.34778	 -4.325061	
9.38105	 -4.309899	
9.41431	 -4.318237	
9.44758	 -4.286688	
9.48085	 -4.303816	
9.51411	 -4.325544	
9.54738	 -4.279865	
9.58065	 -4.272461	
9.61391	 -4.325834	
9.64718	 -4.287848	
9.68044	 -4.249734	
9.71371	 -4.310866	
9.74698	 -4.279736	
9.78024	 -4.280541	
9.81351	 -4.310060	
9.84677	 -4.280735	
9.88004	 -4.257202	
9.91331	 -4.301302	
9.94657	 -4.226685	
9.97984	 -4.233283	
10.0131	 -4.318237	
10.0464	 -4.250797	
10.0796	 -4.254560	
10.1129	 -4.299603	
10.1462	 -4.244973	
10.1794	 -4.232703	
10.2127	 -4.287720	
10.246	 -4.217250	
10.2792	 -4.236216	
10.3125	 -4.282088	
10.3458	 -4.226685	
10.379	 -4.236506	
10.4123	 -4.293061	
10.4456	 -4.257202	
10.4788	 -4.221721	
10.5121	 -4.292876	
10.5454	 -4.226685	
10.5786	 -4.221827	
10.6119	 -4.261963	
10.6452	 -4.231349	
10.6784	 -4.191599	
10.7117	 -4.246414	
10.745	 -4.252828	
10.7782	 -4.246221	
10.8115	 -4.294617	
10.8448	 -4.283636	
10.878	 -4.245931	
10.9113	 -4.283829	
10.9446	 -4.260996	
10.9778	 -4.234079	
11.0111	 -4.279663	
11.0444	 -4.260706	
11.0776	 -4.275868	
11.1109	 -4.260513	
11.1442	 -4.260416	
11.1774	 -4.302979	
11.2107	 -4.305999	
11.244	 -4.260126	
11.2772	 -4.305806	
11.3105	 -4.302979	
11.3437	 -4.251934	
11.377	 -4.305516	
11.4103	 -4.302979	
11.4435	 -4.270117	
11.4768	 -4.344261	
11.5101	 -4.333496	
11.5433	 -4.272461	
11.5766	 -4.335453	
11.6099	 -4.333496	
11.6431	 -4.272461	
11.6764	 -4.362347	
11.7097	 -4.333496	
11.7429	 -4.272461	
11.7762	 -4.348755	
11.8095	 -4.334776	
11.8427	 -4.274828	
11.876	 -4.318237	
11.9093	 -4.333496	
11.9425	 -4.303872	
11.9758	 -4.332699	
12.0091	 -4.348755	
12.0423	 -4.287720	
12.0756	 -4.332989	
12.1089	 -4.319057	
12.1421	 -4.287720	
12.1754	 -4.318020	
12.2087	 -4.333376	
12.2419	 -4.302955	
12.2752	 -4.302979	
12.3085	 -4.378593	
12.3417	 -4.287720	
12.375	 -4.318237	
12.4083	 -4.348755	
12.4415	 -4.287720	
12.4748	 -4.302979	
12.5081	 -4.318987	
12.5413	 -4.288567	
12.5746	 -4.318237	
12.6079	 -4.320318	
12.6411	 -4.285446	
12.6744	 -4.302979	
12.7077	 -4.276452	
12.7409	 -4.272461	
12.7742	 -4.304502	
12.8075	 -4.275702	
12.8407	 -4.286003	
12.874	 -4.320051	
12.9073	 -4.274371	
12.9405	 -4.287720	
12.9738	 -4.305082	
13.0071	 -4.255002	
13.0403	 -4.259499	
13.0736	 -4.290113	
13.1069	 -4.259693	
13.1401	 -4.257202	
13.1734	 -4.318237	
13.2067	 -4.259983	
